<?xml version="1.0" encoding="UTF-8"?> <!-- Generator: Adobe Illustrator 22.0.0, SVG Export Plug-In . SVG Version: 6.00 Build 0) --> <svg xmlns="http://www.w3.org/2000/svg" xmlns:xlink="http://www.w3.org/1999/xlink" version="1.1" x="0px" y="0px" viewBox="0 0 319.1 36" xml:space="preserve"> <g id="Layer_2"> </g> <g id="Layer_1"> <g> <g> <path fill="#2E2725" d="M35.3,18c0,5.8-2.8,10.9-7.1,14.1c-1.8,1.3-3.8,2.3-6,2.9c-0.5,0.1-1,0.2-1.5,0.3c-1,0.2-2,0.3-3,0.3 c-1,0-2-0.1-3-0.3c-0.5-0.1-1-0.2-1.5-0.3c-2.2-0.6-4.2-1.6-6-2.9C2.8,28.9,0,23.8,0,18C0,8.3,7.9,0.4,17.6,0.4 C27.4,0.4,35.3,8.3,35.3,18z"></path> <g> <path fill="#FFB81C" d="M20.6,9.3v26.1c-1,0.2-2,0.3-3,0.3c-1,0-2-0.1-3-0.3V4.7L20.6,9.3z"></path> <path fill="#FFB81C" d="M28.2,19.7v12.4c-1.8,1.3-3.8,2.3-6,2.9V15.2L28.2,19.7z"></path> <path fill="#FFB81C" d="M13.1,10.1v25c-2.2-0.6-4.2-1.6-6-2.9V14.6L13.1,10.1z"></path> </g> </g> <g> <path fill="#FFB81C" d="M67.8,24.8c0,6.3-3,10.5-8.8,10.5H46.2V0h11.7c5.9,0,8.6,4.9,8.6,9.7c0,3.2-1.1,5.7-3,7 C66.4,18.1,67.8,21.2,67.8,24.8z M51.2,14.1h6.6c2.1,0,3.7-1.4,3.7-4.3c0-2.4-1.4-4.3-3.7-4.3h-6.6V14.1z M62.9,24.6 c0-2.8-1.6-5-4.3-5h-7.4v10.1h7.3C61,29.7,62.9,27.7,62.9,24.6z"></path> <path fill="#FFB81C" d="M71.9,22.1V0l5,0v22c0,5.3,3.3,8.5,6.8,8.5c3.6,0,6.8-3.2,6.8-8.5V0h5v22.1c0,8.4-4.8,13.9-11.8,13.9 C76.7,36,71.9,30.6,71.9,22.1z"></path> <path fill="#FFB81C" d="M101.7,0h4.9v35.3h-4.9V0z"></path> <path fill="#FFB81C" d="M113.1,0h4.9v29.7h13v5.5h-17.9V0z"></path> <path fill="#FFB81C" d="M134.5,0h9.3c0.5,0,2.2,0,3.6,0.2c7,1,10.8,8.5,10.8,17.4c0,9-3.8,16.4-10.8,17.4 c-1.3,0.2-3.1,0.2-3.6,0.2h-9.3V0z M143.8,29.7c0.9,0,2.3,0,3.3-0.2c4.2-1,6-6.3,6-11.8c0-5.7-1.9-10.9-6-11.8 c-1-0.2-2.4-0.2-3.3-0.2h-4.3v24.1H143.8z"></path> <path fill="#FFB81C" d="M163,0h19v5.5h-14.1v8.7h11.6v5.5h-11.6v10H182v5.5h-19V0z"></path> <path fill="#FFB81C" d="M203.8,35.3l-5-12.3h-7v12.3h-4.9V0H199c0.6,0,1.6,0,2.3,0.2c5.1,0.9,7.5,5.4,7.5,11.3 c0,4.8-1.6,8.7-5,10.4l5.4,13.4H203.8z M191.8,17.4h7.1c0.5,0,1.3-0.1,1.8-0.2c2.4-0.7,3.2-3.5,3.2-5.7s-0.8-4.9-3.2-5.7 c-0.6-0.2-1.3-0.2-1.8-0.2h-7.1V17.4z"></path> <path fill="#2E2725" d="M222,0h3l16.1,28.9V0h3v35.3h-3L225,6.3v29h-3V0z"></path> <path fill="#2E2725" d="M249.9,0h18.3v3.4h-15.4v12.2h12.9v3.4h-12.9v12.7h15.4v3.4h-18.3V0z"></path> <path fill="#2E2725" d="M273.1,0h18.3v3.4h-15.4v12.2H289v3.4h-12.9v12.7h15.4v3.4h-18.3V0z"></path> <path fill="#2E2725" d="M296.4,0h8.9c0.6,0,2.4,0,3.8,0.2c6.7,1.1,10.1,8.4,10.1,17.4c0,9-3.4,16.3-10.1,17.4 c-1.4,0.2-3.2,0.2-3.8,0.2h-8.9V0z M305.3,31.8c1.1,0,2.6,0,3.5-0.2c5.1-1.1,7.2-6.9,7.2-13.9c0-7.1-2.1-12.8-7.2-13.9 c-0.9-0.2-2.4-0.2-3.5-0.2h-5.8v28.3H305.3z"></path> </g> </g> </g> </svg> 